<svg width="836" height="136" viewBox="0 0 836 136" fill="none" xmlns="http://www.w3.org/2000/svg">
<path d="M1 1H73.7059V113.589H1V1ZM32.8174 32.1749V82.8178H41.9772V32.1749H32.8174Z" fill="#F5F6F9"/>
<path d="M484.837 1.20357H558.057V50.7883H548.145V63.9372H558.194V113.475H484.837V1.20357ZM529.767 72.0189H515.063V85.6685H529.767V72.0189ZM529.222 42.5831V28.8868H515.131V42.5831H529.222Z" fill="#F5F6F9"/>
<path d="M277.452 104.438V94.1302H236.53V21.9496H308.915V134.705H236.438V104.438H277.452ZM265.672 64.808H279.899V50.2604C274.747 50.2604 270.395 50.3605 265.672 50.2604V64.808Z" fill="#F5F6F9"/>
<path d="M650.117 135H577.728V104.636H619.315V94.0811H577.544V21.7803H607.804V62.6625H619.073V21.9906H650.117V135Z" fill="#F5F6F9"/>
<path d="M834.986 1.51142V72.7039H794.456V83.6463H835V113.606H762.757V1.51142H834.986ZM805.633 42.7174V28.5637H791.668V42.7174H805.633Z" fill="#F5F6F9"/>
<path d="M409.764 113.773H378.652V11.6422H451.323V113.519H420.743V42.1361H409.767L409.764 113.773Z" fill="#F5F6F9"/>
<path d="M743.33 114.107H670.042C669.956 76.6861 669.99 39.5961 670.031 1.49788H701.038C701.382 7.56662 701.723 13.5586 702.149 21.0093H743.514V51.9972H702.333V82.9585H711.871V63.2768H743.33V114.107Z" fill="#F5F6F9"/>
<path d="M135.877 42.7767H124.505V113.715H93.8125V11.5417H166.215V61.507H135.88L135.877 42.7767Z" fill="#F5F6F9"/>
<path d="M215.47 115.993H184.838V44.9238H215.47V115.993Z" fill="#F5F6F9"/>
<path d="M328.585 42.8479H358.661V113.823H328.585V42.8479Z" fill="#F5F6F9"/>
<path d="M186.196 30.6725V1.09329H216.497V30.6725H186.196Z" fill="#F5F6F9"/>
<path d="M358.657 1.31629V30.4649H328.567V1.31629H358.657Z" fill="#F5F6F9"/>
<path d="M1 1H73.7059V113.589H1V1ZM32.8174 32.1749V82.8178H41.9772V32.1749H32.8174Z" stroke="#0D1117"/>
<path d="M484.837 1.20357H558.057V50.7883H548.145V63.9372H558.194V113.475H484.837V1.20357ZM529.767 72.0189H515.063V85.6685H529.767V72.0189ZM529.222 42.5831V28.8868H515.131V42.5831H529.222Z" stroke="#0D1117"/>
<path d="M277.452 104.438V94.1302H236.53V21.9496H308.915V134.705H236.438V104.438H277.452ZM265.672 64.808H279.899V50.2604C274.747 50.2604 270.395 50.3605 265.672 50.2604V64.808Z" stroke="#0D1117"/>
<path d="M650.117 135H577.728V104.636H619.315V94.0811H577.544V21.7803H607.804V62.6625H619.073V21.9906H650.117V135Z" stroke="#0D1117"/>
<path d="M834.986 1.51142V72.7039H794.456V83.6463H835V113.606H762.757V1.51142H834.986ZM805.633 42.7174V28.5637H791.668V42.7174H805.633Z" stroke="#0D1117"/>
<path d="M409.764 113.773H378.652V11.6422H451.323V113.519H420.743V42.1361H409.767L409.764 113.773Z" stroke="#0D1117"/>
<path d="M743.33 114.107H670.042C669.956 76.6861 669.99 39.5961 670.031 1.49788H701.038C701.382 7.56662 701.723 13.5586 702.149 21.0093H743.514V51.9972H702.333V82.9585H711.871V63.2768H743.33V114.107Z" stroke="#0D1117"/>
<path d="M135.877 42.7767H124.505V113.715H93.8125V11.5417H166.215V61.507H135.88L135.877 42.7767Z" stroke="#0D1117"/>
<path d="M215.47 115.993H184.838V44.9238H215.47V115.993Z" stroke="#0D1117"/>
<path d="M328.585 42.8479H358.661V113.823H328.585V42.8479Z" stroke="#0D1117"/>
<path d="M186.196 30.6725V1.09329H216.497V30.6725H186.196Z" stroke="#0D1117"/>
<path d="M358.657 1.31629V30.4649H328.567V1.31629H358.657Z" stroke="#0D1117"/>
</svg>
